<?xml version="1.0" standalone="no"?>
<!DOCTYPE svg PUBLIC "-//W3C//DTD SVG 20010904//EN"
 "http://www.w3.org/TR/2001/REC-SVG-20010904/DTD/svg10.dtd">
<svg version="1.0" xmlns="http://www.w3.org/2000/svg"
 width="682.000000pt" height="271.000000pt" viewBox="0 0 682.000000 271.000000"
 preserveAspectRatio="xMidYMid meet">

<g transform="translate(0.000000,271.000000) scale(0.100000,-0.100000)"
fill="#000000" stroke="none">
<path d="M0 1355 l0 -1355 3410 0 3410 0 0 1355 0 1355 -3410 0 -3410 0 0
-1355z m5238 1128 c9 -13 12 -166 12 -685 l0 -668 68 0 c83 0 130 21 154 70
16 30 18 65 18 253 0 120 -5 261 -11 313 -6 53 -8 98 -6 100 3 3 51 8 109 11
90 5 106 3 121 -11 15 -16 17 -47 17 -303 0 -331 -7 -392 -56 -465 l-34 -50
30 -41 c45 -64 60 -140 60 -304 0 -83 5 -152 11 -166 18 -39 99 -68 85 -31
-21 55 -28 116 -24 212 4 95 8 114 36 168 50 99 101 144 282 252 l165 99 0
195 c0 210 -5 236 -52 257 -13 6 -47 11 -74 11 -42 0 -55 -5 -79 -28 -36 -37
-45 -91 -37 -243 l6 -117 -38 -6 c-54 -8 -141 10 -168 36 -22 21 -23 28 -23
177 0 180 8 218 57 272 69 76 190 115 328 106 180 -13 274 -83 304 -225 7 -35
11 -236 11 -582 0 -366 3 -537 11 -553 12 -27 47 -47 81 -47 18 0 19 -4 14
-37 -14 -79 -73 -123 -164 -123 -66 0 -115 20 -138 57 -10 15 -19 30 -20 32
-2 1 -20 -11 -41 -28 -50 -40 -113 -61 -181 -61 -86 0 -131 18 -190 77 -29 29
-55 53 -58 53 -2 0 -4 -7 -4 -16 0 -9 -9 -31 -20 -50 -44 -70 -198 -88 -259
-30 -42 40 -51 92 -51 296 0 257 -14 283 -156 289 l-84 3 0 -248 c1 -137 5
-268 9 -292 11 -55 7 -57 -129 -57 l-105 0 -5 1015 c-4 764 -9 1024 -18 1050
-6 19 -12 35 -12 36 0 7 87 37 125 44 63 11 106 5 123 -17z m-4760 -113 c19
-12 41 -38 52 -63 18 -39 20 -70 20 -492 0 -278 4 -464 10 -487 14 -51 43 -68
110 -68 66 0 124 29 157 79 23 34 23 36 23 375 0 188 -5 408 -10 491 -5 82 -7
152 -4 155 3 3 57 7 120 9 l114 3 10 -27 c6 -16 9 -124 8 -276 -2 -137 0 -249
3 -249 3 0 18 14 34 30 73 77 225 61 271 -27 18 -36 19 -70 24 -639 5 -568 6
-603 24 -622 44 -50 139 -27 190 46 l26 38 0 525 c0 305 -4 559 -10 608 -6 46
-9 85 -7 87 2 2 51 7 108 10 91 6 107 5 122 -10 16 -16 17 -67 17 -661 0 -451
3 -651 11 -668 12 -27 47 -47 81 -47 18 0 19 -4 14 -37 -4 -21 -15 -49 -25
-63 -56 -80 -229 -80 -279 -1 -9 14 -17 28 -18 30 -2 1 -20 -11 -41 -28 -71
-57 -175 -76 -265 -49 -56 16 -121 78 -149 140 l-24 53 -5 570 c-3 314 -9 578
-14 588 -11 22 -38 37 -68 37 l-23 0 0 -573 c0 -646 2 -627 -79 -715 -77 -83
-188 -118 -349 -110 -153 8 -260 64 -313 163 -26 46 -28 61 -32 187 -6 179 4
196 120 219 29 5 70 7 91 3 l39 -6 -6 -127 c-7 -147 2 -184 53 -218 67 -45
187 -24 223 39 9 17 14 89 16 268 1 134 0 250 -2 257 -4 9 -20 4 -57 -19 -46
-29 -60 -33 -143 -36 -164 -7 -256 38 -307 151 -24 52 -24 55 -29 505 l-5 454
-28 24 c-15 13 -40 24 -54 24 -24 0 -25 2 -20 39 11 84 75 130 182 131 43 0
69 -6 93 -20z m3281 -146 l31 -6 0 -176 0 -175 215 5 214 5 6 -41 c4 -23 5
-63 3 -91 l-3 -50 -217 -3 -218 -2 0 -541 c0 -582 0 -577 52 -613 32 -23 100
-20 131 5 43 33 49 76 46 296 l-4 201 39 6 c50 8 139 -11 166 -36 19 -18 20
-31 20 -248 0 -213 -2 -233 -21 -275 -25 -54 -65 -89 -139 -124 -50 -24 -66
-26 -180 -26 -117 0 -129 2 -182 28 -32 16 -73 47 -93 70 -65 75 -65 79 -65
695 l0 555 -49 -6 -49 -6 -12 69 c-8 45 -8 80 -3 97 9 26 15 28 65 31 l55 3
22 152 c24 162 32 181 85 196 40 12 47 12 85 5z m-1237 -354 c31 -11 74 -38
96 -59 60 -59 72 -106 72 -292 0 -157 0 -158 -26 -178 -32 -25 -122 -44 -168
-36 l-35 7 6 117 c8 152 -1 206 -37 243 -25 25 -36 28 -90 28 -51 0 -65 -4
-85 -25 l-25 -24 0 -511 c0 -554 1 -560 55 -596 36 -23 119 -22 175 3 47 20
113 77 122 103 4 13 10 12 42 -4 20 -11 45 -32 54 -48 9 -15 19 -28 22 -28 3
0 5 55 5 123 0 117 1 125 32 190 45 95 108 151 293 261 l155 92 3 188 c3 248
-10 276 -127 276 -102 0 -127 -54 -117 -257 l6 -131 -47 -6 c-54 -8 -133 12
-164 40 -17 15 -19 32 -19 172 0 171 8 213 52 266 97 118 347 152 508 71 57
-29 83 -57 112 -120 23 -50 23 -51 28 -621 5 -543 6 -573 24 -593 10 -11 34
-24 53 -27 34 -6 35 -8 29 -43 -12 -75 -74 -121 -164 -121 -66 0 -115 20 -138
57 -10 15 -19 30 -20 32 -2 1 -20 -11 -41 -28 -81 -65 -206 -81 -298 -37 -59
28 -84 53 -124 126 -28 49 -31 52 -31 27 0 -56 -117 -136 -238 -163 -102 -23
-261 -16 -317 13 -57 30 -94 69 -124 133 l-26 55 -3 554 c-3 613 -2 626 60
697 38 44 110 81 180 94 81 14 214 5 280 -20z m2260 0 c73 -27 141 -100 163
-173 32 -108 15 -284 -40 -404 -36 -79 -90 -130 -265 -249 l-160 -109 0 -158
c0 -185 9 -219 64 -242 75 -32 136 -12 167 52 20 42 21 55 16 169 l-6 124 26
6 c43 11 142 -4 174 -27 l29 -20 0 -148 c0 -84 -5 -163 -11 -182 -41 -123
-172 -185 -369 -177 -163 7 -240 50 -292 163 -23 50 -23 52 -26 568 -2 323 1
543 7 585 21 132 80 199 208 234 90 24 234 19 315 -12z"/>
<path d="M6195 969 c-127 -90 -151 -121 -165 -218 -12 -86 3 -160 40 -193 17
-16 39 -28 50 -28 42 0 103 34 131 73 l29 40 0 189 c0 103 -3 188 -7 187 -5 0
-39 -23 -78 -50z"/>
<path d="M3105 966 c-138 -92 -165 -138 -165 -276 0 -91 24 -138 77 -153 42
-13 119 24 150 72 22 32 23 44 23 222 0 104 -1 189 -3 189 -1 0 -38 -24 -82
-54z"/>
<path d="M4509 1671 l-29 -29 0 -236 c0 -130 3 -236 7 -236 3 0 44 28 89 63
57 42 91 76 108 107 30 55 50 163 44 237 -4 49 -10 61 -41 90 -32 29 -43 33
-93 33 -48 0 -59 -4 -85 -29z"/>
</g>
</svg>
