<svg version="1.0" preserveAspectRatio="xMidYMid meet" viewBox="42.75 152.999996328 273.75 110.249997354" zoomAndPan="magnify" xmlns:xlink="http://www.w3.org/1999/xlink" xmlns="http://www.w3.org/2000/svg" style="max-height: 500px" width="273.75" height="110.249997354"><defs><g/></defs><rect fill-opacity="1" height="449.999989" y="-37.499999" fill="#ffffff" width="450" x="-37.5"/><rect fill-opacity="1" height="449.999989" y="-37.499999" fill="#1c191a" width="450" x="-37.5"/><g fill-opacity="1" fill="#f6e7d8"><g transform="translate(48.944167, 252.028362)"><g><path d="M 29.296875 -77.421875 C 29.296875 -81.867188 28.976562 -85.59375 28.34375 -88.59375 C 31.4375 -88.957031 34.570312 -89.140625 37.75 -89.140625 C 39.300781 -89.140625 40.078125 -88.457031 40.078125 -87.09375 L 40.078125 -13.078125 C 40.078125 -8.535156 38.53125 -4.992188 35.4375 -2.453125 C 32.34375 0.0859375 28.179688 1.359375 22.953125 1.359375 C 17.734375 1.359375 13.578125 0.203125 10.484375 -2.109375 C 7.398438 -4.429688 5.859375 -7.453125 5.859375 -11.171875 L 5.859375 -20.4375 C 5.859375 -22.070312 7.039062 -23.210938 9.40625 -23.859375 C 10.675781 -24.210938 11.945312 -24.390625 13.21875 -24.390625 C 14.488281 -24.390625 15.757812 -24.253906 17.03125 -23.984375 C 16.757812 -21.804688 16.625 -19.488281 16.625 -17.03125 L 16.625 -13.078125 C 16.625 -11.359375 17.210938 -10.019531 18.390625 -9.0625 C 19.578125 -8.101562 21.125 -7.625 23.03125 -7.625 C 24.9375 -7.625 26.457031 -8.101562 27.59375 -9.0625 C 28.726562 -10.019531 29.296875 -11.359375 29.296875 -13.078125 L 29.296875 -34.34375 C 26.941406 -31.976562 23.765625 -30.796875 19.765625 -30.796875 C 10.492188 -30.796875 5.859375 -35.160156 5.859375 -43.890625 L 5.859375 -77 C 5.859375 -78.914062 5.472656 -80.257812 4.703125 -81.03125 C 3.929688 -81.800781 2.59375 -82.1875 0.6875 -82.1875 C 0.6875 -87.363281 3.59375 -89.953125 9.40625 -89.953125 C 14.21875 -89.953125 16.625 -86.816406 16.625 -80.546875 L 16.625 -44.703125 C 16.625 -41.429688 18.28125 -39.796875 21.59375 -39.796875 C 24.914062 -39.796875 27.484375 -41.382812 29.296875 -44.5625 Z M 29.296875 -77.421875"/></g></g></g><g fill-opacity="1" fill="#f6e7d8"><g transform="translate(84.511211, 252.028362)"><g><path d="M 26.171875 -55.609375 C 26.171875 -59.054688 25.851562 -62.78125 25.21875 -66.78125 C 27.9375 -67.144531 30.890625 -67.328125 34.078125 -67.328125 C 35.617188 -67.328125 36.390625 -66.644531 36.390625 -65.28125 L 36.390625 -11.3125 C 36.390625 -9.40625 36.726562 -8.039062 37.40625 -7.21875 C 38.09375 -6.40625 39.390625 -6 41.296875 -6 C 41.390625 -3.632812 40.773438 -1.816406 39.453125 -0.546875 C 38.140625 0.722656 36.253906 1.359375 33.796875 1.359375 C 30.160156 1.359375 27.84375 -0.046875 26.84375 -2.859375 C 24.03125 -0.046875 20.851562 1.359375 17.3125 1.359375 C 13.769531 1.359375 10.90625 0.15625 8.71875 -2.25 C 6.539062 -4.65625 5.453125 -8.085938 5.453125 -12.546875 L 5.453125 -55.46875 C 5.453125 -57.375 5.109375 -58.734375 4.421875 -59.546875 C 3.742188 -60.367188 2.453125 -60.78125 0.546875 -60.78125 C 0.453125 -63.0625 1.109375 -64.859375 2.515625 -66.171875 C 3.929688 -67.492188 5.910156 -68.15625 8.453125 -68.15625 C 10.992188 -68.15625 12.832031 -67.425781 13.96875 -65.96875 C 15.101562 -64.507812 15.671875 -62.101562 15.671875 -58.75 L 15.671875 -12.671875 C 15.671875 -9.492188 16.988281 -7.90625 19.625 -7.90625 C 20.988281 -7.90625 22.28125 -8.425781 23.5 -9.46875 C 24.726562 -10.519531 25.617188 -11.632812 26.171875 -12.8125 Z M 26.171875 -55.609375"/></g></g></g><g fill-opacity="1" fill="#f6e7d8"><g transform="translate(117.488993, 252.028362)"><g><path d="M 30.53125 -13.765625 C 34.164062 -12.128906 35.984375 -9.765625 35.984375 -6.671875 C 35.984375 -5.671875 35.570312 -4.851562 34.75 -4.21875 C 31.113281 -0.5 25.617188 1.359375 18.265625 1.359375 C 8.992188 1.359375 4.359375 -3.726562 4.359375 -13.90625 L 4.359375 -54.796875 C 4.359375 -63.703125 9.628906 -68.15625 20.171875 -68.15625 C 24.804688 -68.15625 28.441406 -67.109375 31.078125 -65.015625 C 33.710938 -62.921875 35.03125 -60.101562 35.03125 -56.5625 L 35.03125 -45.390625 C 35.03125 -43.835938 33.9375 -42.789062 31.75 -42.25 C 30.664062 -41.882812 29.507812 -41.703125 28.28125 -41.703125 C 27.050781 -41.703125 25.847656 -41.835938 24.671875 -42.109375 C 24.941406 -44.109375 25.078125 -46.242188 25.078125 -48.515625 L 25.078125 -53.015625 C 25.078125 -55.285156 24.664062 -56.921875 23.84375 -57.921875 C 23.03125 -58.921875 21.625 -59.421875 19.625 -59.421875 C 16.257812 -59.421875 14.578125 -58.015625 14.578125 -55.203125 L 14.578125 -15.53125 C 14.578125 -12.71875 15.03125 -10.675781 15.9375 -9.40625 C 16.851562 -8.132812 18.378906 -7.5 20.515625 -7.5 C 22.648438 -7.5 24.71875 -8.175781 26.71875 -9.53125 C 28.71875 -10.894531 29.988281 -12.304688 30.53125 -13.765625 Z M 30.53125 -13.765625"/></g></g></g><g fill-opacity="1" fill="#f6e7d8"><g transform="translate(146.242215, 252.028362)"><g><path d="M 18.125 -24.9375 C 15.125 -22.9375 13.625 -19.597656 13.625 -14.921875 C 13.625 -10.242188 15.054688 -7.90625 17.921875 -7.90625 C 20.785156 -7.90625 23.035156 -9.539062 24.671875 -12.8125 L 24.671875 -29.296875 Z M 19.625 -68.15625 C 29.800781 -68.15625 34.890625 -63.65625 34.890625 -54.65625 L 34.890625 -11.3125 C 34.890625 -9.40625 35.226562 -8.039062 35.90625 -7.21875 C 36.59375 -6.40625 37.890625 -6 39.796875 -6 C 39.890625 -3.632812 39.273438 -1.816406 37.953125 -0.546875 C 36.640625 0.722656 34.753906 1.359375 32.296875 1.359375 C 28.484375 1.359375 26.164062 -0.046875 25.34375 -2.859375 C 22.53125 -0.046875 19.210938 1.359375 15.390625 1.359375 C 11.578125 1.359375 8.535156 -0.09375 6.265625 -3 C 3.992188 -5.90625 2.859375 -9.8125 2.859375 -14.71875 C 2.859375 -22.164062 5.992188 -27.800781 12.265625 -31.625 L 24.671875 -38.984375 L 24.671875 -53.703125 C 24.671875 -57.515625 22.875 -59.421875 19.28125 -59.421875 C 15.695312 -59.421875 13.90625 -57.285156 13.90625 -53.015625 L 13.90625 -48.515625 L 14.3125 -42.109375 C 13.132812 -41.835938 11.929688 -41.703125 10.703125 -41.703125 C 9.472656 -41.703125 8.3125 -41.882812 7.21875 -42.25 C 5.039062 -42.789062 3.953125 -43.835938 3.953125 -45.390625 L 3.953125 -56.5625 C 3.953125 -60.195312 5.382812 -63.035156 8.25 -65.078125 C 11.113281 -67.128906 14.90625 -68.15625 19.625 -68.15625 Z M 19.625 -68.15625"/></g></g></g><g fill-opacity="1" fill="#f6e7d8"><g transform="translate(177.175872, 252.028362)"><g><path d="M 36.65625 -10.5 C 36.65625 -6.675781 35.203125 -3.742188 32.296875 -1.703125 C 29.390625 0.335938 25.6875 1.359375 21.1875 1.359375 C 16.695312 1.359375 13.109375 0.203125 10.421875 -2.109375 C 7.742188 -4.429688 6.40625 -7.546875 6.40625 -11.453125 L 6.40625 -58.609375 L 2.1875 -57.921875 C 1.550781 -60.285156 1.234375 -62.351562 1.234375 -64.125 C 1.234375 -65.894531 1.820312 -66.78125 3 -66.78125 L 6.671875 -66.78125 L 8.59375 -79.59375 C 8.945312 -81.59375 10.625 -82.59375 13.625 -82.59375 C 14.539062 -82.59375 15.539062 -82.503906 16.625 -82.328125 L 16.625 -66.78125 L 28.484375 -66.78125 L 35.578125 -67.46875 C 36.023438 -65.101562 36.25 -63.035156 36.25 -61.265625 C 36.25 -59.492188 35.660156 -58.609375 34.484375 -58.609375 L 16.625 -58.609375 L 16.625 -13.078125 C 16.625 -11.171875 17.097656 -9.695312 18.046875 -8.65625 C 19.003906 -7.613281 20.210938 -7.09375 21.671875 -7.09375 C 25.035156 -7.09375 26.71875 -9.316406 26.71875 -13.765625 L 26.71875 -23.71875 L 26.3125 -30.125 C 27.488281 -30.394531 28.6875 -30.53125 29.90625 -30.53125 C 31.132812 -30.53125 32.296875 -30.347656 33.390625 -29.984375 C 35.566406 -29.441406 36.65625 -28.394531 36.65625 -26.84375 Z M 36.65625 -10.5"/></g></g></g><g fill-opacity="1" fill="#f6e7d8"><g transform="translate(206.337922, 252.028362)"><g><path d="M 25.34375 -53.5625 C 25.34375 -55.382812 24.796875 -56.816406 23.703125 -57.859375 C 22.617188 -58.898438 21.257812 -59.421875 19.625 -59.421875 C 16.257812 -59.421875 14.578125 -58.015625 14.578125 -55.203125 L 14.578125 -35.703125 L 21.125 -40.609375 C 23.9375 -42.703125 25.34375 -47.019531 25.34375 -53.5625 Z M 4.359375 -12.125 L 4.359375 -54.796875 C 4.359375 -63.703125 9.601562 -68.15625 20.09375 -68.15625 C 30.59375 -68.15625 35.84375 -63.15625 35.84375 -53.15625 C 35.84375 -49.15625 35.113281 -45.472656 33.65625 -42.109375 C 32.207031 -38.753906 30.210938 -36.210938 27.671875 -34.484375 L 14.578125 -25.484375 L 14.578125 -13.078125 C 14.578125 -9.265625 16.367188 -7.359375 19.953125 -7.359375 C 23.546875 -7.359375 25.34375 -9.492188 25.34375 -13.765625 L 25.34375 -16.90625 L 24.9375 -23.3125 C 26.125 -23.582031 27.328125 -23.71875 28.546875 -23.71875 C 29.773438 -23.71875 30.9375 -23.535156 32.03125 -23.171875 C 34.207031 -22.628906 35.296875 -21.582031 35.296875 -20.03125 L 35.296875 -10.21875 C 35.296875 -6.582031 33.863281 -3.742188 31 -1.703125 C 28.144531 0.335938 24.351562 1.359375 19.625 1.359375 C 9.445312 1.359375 4.359375 -3.132812 4.359375 -12.125 Z M 4.359375 -12.125"/></g></g></g><g fill-opacity="1" fill="#f6e7d8"><g transform="translate(235.772518, 252.028362)"><g><path d="M 25.625 -55.609375 C 25.625 -59.054688 25.304688 -62.78125 24.671875 -66.78125 C 27.398438 -67.144531 30.351562 -67.328125 33.53125 -67.328125 C 35.070312 -67.328125 35.84375 -66.644531 35.84375 -65.28125 L 35.84375 -40.484375 C 35.84375 -36.296875 34.476562 -32.976562 31.75 -30.53125 C 34.476562 -28.257812 35.84375 -24.941406 35.84375 -20.578125 L 35.84375 -11.3125 C 35.84375 -9.40625 36.179688 -8.039062 36.859375 -7.21875 C 37.546875 -6.40625 38.84375 -6 40.75 -6 C 40.84375 -3.726562 40.179688 -1.929688 38.765625 -0.609375 C 37.359375 0.703125 35.382812 1.359375 32.84375 1.359375 C 30.300781 1.359375 28.460938 0.632812 27.328125 -0.8125 C 26.191406 -2.269531 25.625 -4.679688 25.625 -8.046875 L 25.625 -20.71875 C 25.625 -22.351562 25.097656 -23.671875 24.046875 -24.671875 C 23.003906 -25.671875 21.710938 -26.171875 20.171875 -26.171875 L 15.125 -26.171875 L 15.125 -11.171875 C 15.125 -6.816406 15.441406 -3.179688 16.078125 -0.265625 C 13.359375 0.273438 10.40625 0.546875 7.21875 0.546875 C 5.675781 0.546875 4.90625 -0.132812 4.90625 -1.5 L 4.90625 -84.5 C 4.90625 -87.226562 4.5 -90 3.6875 -92.8125 C 6.40625 -94.269531 9.3125 -95 12.40625 -95 C 14.21875 -95 15.125 -94.316406 15.125 -92.953125 L 15.125 -34.34375 L 20.4375 -34.34375 C 21.800781 -34.34375 23.003906 -34.863281 24.046875 -35.90625 C 25.097656 -36.957031 25.625 -38.253906 25.625 -39.796875 Z M 25.625 -55.609375"/></g></g></g><g fill-opacity="1" fill="#f6e7d8"><g transform="translate(268.068922, 252.028362)"><g><path d="M 18.125 -24.9375 C 15.125 -22.9375 13.625 -19.597656 13.625 -14.921875 C 13.625 -10.242188 15.054688 -7.90625 17.921875 -7.90625 C 20.785156 -7.90625 23.035156 -9.539062 24.671875 -12.8125 L 24.671875 -29.296875 Z M 19.625 -68.15625 C 29.800781 -68.15625 34.890625 -63.65625 34.890625 -54.65625 L 34.890625 -11.3125 C 34.890625 -9.40625 35.226562 -8.039062 35.90625 -7.21875 C 36.59375 -6.40625 37.890625 -6 39.796875 -6 C 39.890625 -3.632812 39.273438 -1.816406 37.953125 -0.546875 C 36.640625 0.722656 34.753906 1.359375 32.296875 1.359375 C 28.484375 1.359375 26.164062 -0.046875 25.34375 -2.859375 C 22.53125 -0.046875 19.210938 1.359375 15.390625 1.359375 C 11.578125 1.359375 8.535156 -0.09375 6.265625 -3 C 3.992188 -5.90625 2.859375 -9.8125 2.859375 -14.71875 C 2.859375 -22.164062 5.992188 -27.800781 12.265625 -31.625 L 24.671875 -38.984375 L 24.671875 -53.703125 C 24.671875 -57.515625 22.875 -59.421875 19.28125 -59.421875 C 15.695312 -59.421875 13.90625 -57.285156 13.90625 -53.015625 L 13.90625 -48.515625 L 14.3125 -42.109375 C 13.132812 -41.835938 11.929688 -41.703125 10.703125 -41.703125 C 9.472656 -41.703125 8.3125 -41.882812 7.21875 -42.25 C 5.039062 -42.789062 3.953125 -43.835938 3.953125 -45.390625 L 3.953125 -56.5625 C 3.953125 -60.195312 5.382812 -63.035156 8.25 -65.078125 C 11.113281 -67.128906 14.90625 -68.15625 19.625 -68.15625 Z M 19.625 -68.15625"/></g></g></g></svg>